HIERARCHY
ROOT Hips
{
	OFFSET 0.00000 0.00000 0.00000
	CHANNELS 6 Xposition Yposition Zposition Zrotation Yrotation Xrotation 
	JOINT LHipJoint
	{
		OFFSET 0 0 0
		CHANNELS 3 Zrotation Yrotation Xrotation
		JOINT LeftHip
		{
			OFFSET 1.64549 -1.70879 0.84566
			CHANNELS 3 Zrotation Yrotation Xrotation
			JOINT LeftKnee
			{
				OFFSET 2.24963 -6.18082 0.00000
				CHANNELS 3 Zrotation Yrotation Xrotation
				JOINT LeftAnkle
				{
					OFFSET 2.71775 -7.46697 0.00000
					CHANNELS 3 Zrotation Yrotation Xrotation
					JOINT LeftToe
					{
						OFFSET 0.18768 -0.51564 2.24737
						CHANNELS 3 Zrotation Yrotation Xrotation
						End Site
						{
							OFFSET 0.00000 -0.00000 1.15935
						}
					}
				}
			}
		}
	}
	JOINT RHipJoint
	{
		OFFSET 0 0 0
		CHANNELS 3 Zrotation Yrotation Xrotation
		JOINT RightHip
		{
			OFFSET -1.58830 -1.70879 0.84566
			CHANNELS 3 Zrotation Yrotation Xrotation
			JOINT RightKnee
			{
				OFFSET -2.25006 -6.18201 0.00000
				CHANNELS 3 Zrotation Yrotation Xrotation
				JOINT RightAnkle
				{
					OFFSET -2.72829 -7.49593 0.00000
					CHANNELS 3 Zrotation Yrotation Xrotation
					JOINT RightToe
					{
						OFFSET -0.21541 -0.59185 2.10643
						CHANNELS 3 Zrotation Yrotation Xrotation
						End Site
						{
							OFFSET -0.00000 -0.00000 1.09838
						}
					}
				}
			}
		}
	}
	JOINT lowerback
	{
		OFFSET 0 0 0
		CHANNELS 3 Zrotation Yrotation Xrotation
		JOINT Chest
		{
			OFFSET 0.03142 2.10496 -0.11038
			CHANNELS 3 Zrotation Yrotation Xrotation
			JOINT Chest2
			{
				OFFSET -0.01863 2.10897 -0.06956
				CHANNELS 3 Zrotation Yrotation Xrotation
				JOINT lowerneck
				{
					OFFSET 0 0 0
					CHANNELS 3 Zrotation Yrotation Xrotation
					JOINT Neck
					{
						OFFSET -0.02267 1.73238 0.00451
						CHANNELS 3 Zrotation Yrotation Xrotation
						JOINT Head
						{
							OFFSET -0.05808 1.54724 -0.61749
							CHANNELS 3 Zrotation Yrotation Xrotation
							End Site
							{
								OFFSET -0.01396 1.71468 -0.21082
							}
						}
					}
				}
				JOINT LeftCollar
				{
					OFFSET 0 0 0
					CHANNELS 3 Zrotation Yrotation Xrotation
					JOINT LeftShoulder
					{
						OFFSET 3.44898 0.50298 0.21920
CHANNELS 3 Zrotation Xrotation Yrotation
						JOINT LeftElbow
						{
OFFSET 0 -5.419170 -0.000000
CHANNELS 3 Zrotation Xrotation Yrotation
							JOINT LeftWrist
							{
OFFSET 0 -2.443730 0.000000
CHANNELS 3 Zrotation Xrotation Yrotation
								JOINT lhand
								{
									OFFSET 0 0 0
CHANNELS 3 Zrotation Xrotation Yrotation
									JOINT LFingers
									{
OFFSET 0 -0.727500 0.000000
CHANNELS 3 Zrotation Xrotation Yrotation
										End Site
										{
OFFSET 0 -0.586530 0.000000
										}
									}
								}
								JOINT LThumb
								{
OFFSET 0 0.000000 0.000000
CHANNELS 3 Zrotation Xrotation Yrotation
									End Site
									{
OFFSET 0 -0.595490 0.595490
									}
								}
							}
						}
					}
				}
				JOINT RightCollar
				{
					OFFSET 0 0 0
					CHANNELS 3 Zrotation Yrotation Xrotation
					JOINT RightShoulder
					{
						OFFSET -3.23015 0.55830 0.31051
CHANNELS 3 Zrotation Xrotation Yrotation
						JOINT RightElbow
						{
OFFSET 0 -5.589760 0.000140
CHANNELS 3 Zrotation Xrotation Yrotation
							JOINT RightWrist
							{
OFFSET 0 -2.480600 0.000000
CHANNELS 3 Zrotation Xrotation Yrotation
								JOINT rhand
								{
									OFFSET 0 0 0
CHANNELS 3 Zrotation Xrotation Yrotation
									JOINT RFingers
									{
OFFSET 0 -0.816010 0.000000
CHANNELS 3 Zrotation Xrotation Yrotation
										End Site
										{
OFFSET 0 -0.657890 0.000000
										}
									}
								}
								JOINT RThumb
								{
OFFSET 0 0.000000 0.000000
CHANNELS 3 Zrotation Xrotation Yrotation
									End Site
									{
OFFSET 0 -0.667930 0.667930
									}
								}
							}
						}
					}
				}
			}
		}
	}
}
MOTION
Frames: 8
Frame Time: 0.008333333333333333
-1.245502 15.703534 -9.492362 -180.762654 -10.033116 -156.067452 0.000000 0.000000 0.000000 -24.883250 -9.631452 0.055716 3.508211 11.475546 33.901043 0.319959 16.625246 -26.340348 0.356245 -3.833829 -10.609739 0.000000 0.000000 0.000000 11.282751 15.723749 -67.620481 -8.077341 -16.175839 52.840662 0.519083 -13.647218 -10.553956 -0.309471 -3.576486 9.888203 -0.137255 -2.123989 -15.017648 1.934386 -4.466457 -10.270740 1.563075 -2.898943 -2.319840 -2.233564 0.950462 -16.167462 0.803659 0.005881 30.962904 0.541972 -0.835547 13.046206 0.000000 0.000000 0.000000 -18.297407 -38.590845 -94.698788 26.842796 -38.025773 9.403396 13.923377 -3.043847 -22.252917 0.000000 0.000000 0.000000 -7.125000 0.000000 0.000000 -15.296577 52.192156 2.761876 0.000000 0.000000 0.000000 9.041748 -27.655815 53.368201 -22.257282 -33.262725 -6.728178 0.615854 -52.808343 -2.594913 0.000000 0.000000 0.000000 7.125000 0.000000 0.000000 20.526317 27.158137 9.469274
-1.223585 15.819637 -9.724741 -180.607895 -11.119725 -156.921957 0.000000 0.000000 0.000000 -24.208492 -9.343772 1.141169 3.455216 11.397773 33.633358 -0.097222 17.862027 -24.426470 0.412373 -4.120181 -11.415290 0.000000 0.000000 0.000000 12.305985 15.183476 -65.089722 -7.962723 -16.091709 52.428133 0.504905 -14.104194 -12.241513 -0.429210 -4.196076 11.630039 0.145049 -2.311955 -14.968251 1.924264 -4.698160 -10.126106 1.359227 -3.006907 -2.203558 -2.078327 0.897491 -15.961544 0.585435 -0.289593 31.065337 0.364218 -1.065510 13.049701 0.000000 0.000000 0.000000 -18.863311 -41.218884 -97.653916 28.546987 -39.607543 10.473422 12.672071 -5.625865 -22.978964 0.000000 0.000000 0.000000 -7.125000 0.000000 0.000000 -16.854454 52.679249 3.263103 0.000000 0.000000 0.000000 8.678013 -29.092790 58.094646 -23.922715 -35.074581 -7.665385 -1.541490 -52.152980 -5.713007 0.000000 0.000000 0.000000 7.125000 0.000000 0.000000 18.490741 24.239477 9.736105
-1.187868 15.917681 -9.929957 -180.871838 -11.294310 -157.139210 0.000000 0.000000 0.000000 -24.317001 -9.372886 1.267858 3.435406 11.368584 33.533155 -0.419287 18.999566 -23.150675 0.298669 -3.491055 -9.651465 0.000000 0.000000 0.000000 12.078475 15.966007 -63.319623 -7.813947 -15.980454 51.889311 0.611339 -15.282286 -12.982722 -0.404251 -4.079626 11.301031 -0.481594 -2.304697 -15.115036 1.892267 -4.656696 -10.301814 1.680948 -2.973580 -2.279124 -2.174303 0.758862 -15.570395 0.487853 -0.534713 31.312543 0.297270 -1.234219 13.074234 0.000000 0.000000 0.000000 -19.613487 -43.362226 -100.129016 30.231345 -41.080726 11.565092 11.513298 -6.870426 -23.517192 0.000000 0.000000 0.000000 -7.125000 0.000000 0.000000 -18.248574 52.992345 3.688710 0.000000 0.000000 0.000000 8.041893 -30.650964 60.948590 -25.799384 -36.995047 -8.772595 -0.777651 -51.609474 -5.889090 0.000000 0.000000 0.000000 7.125000 0.000000 0.000000 18.994234 24.076098 10.137525
-1.157063 16.014132 -10.121263 -180.963155 -11.491472 -157.359124 0.000000 0.000000 0.000000 -24.298509 -9.540235 1.200133 3.432679 11.364569 33.519361 -0.344782 18.716724 -23.422222 0.268175 -3.330964 -9.201635 0.000000 0.000000 0.000000 12.006393 16.806170 -61.617303 -7.633903 -15.842765 51.232071 0.768267 -16.584884 -13.107230 -0.312234 -3.578078 9.894039 -0.841866 -2.221323 -14.975553 1.873598 -4.585129 -10.684056 1.905677 -2.949371 -2.747122 -2.367520 0.666600 -14.915689 0.534323 -0.789362 31.644937 0.299203 -1.419886 13.078340 0.000000 0.000000 0.000000 -20.231795 -45.039019 -102.138211 31.966989 -42.508160 12.722978 10.640808 -8.209258 -23.836783 0.000000 0.000000 0.000000 -7.125000 0.000000 0.000000 -19.261012 53.142295 3.975634 0.000000 0.000000 0.000000 7.595035 -31.707167 62.618306 -27.867565 -38.973143 -10.048288 0.042518 -51.347130 -5.511304 0.000000 0.000000 0.000000 7.125000 0.000000 0.000000 19.630658 24.428332 10.348288
-1.122353 16.115758 -10.317422 -180.847953 -11.659211 -157.586384 0.000000 0.000000 0.000000 -24.036904 -9.597723 0.818102 3.457871 11.401670 33.646784 -0.204326 18.181148 -23.927467 0.263499 -3.301800 -9.120231 0.000000 0.000000 0.000000 12.173044 17.804841 -59.859414 -7.424555 -15.678412 50.460840 0.899979 -17.771367 -13.753476 -0.330329 -3.681155 10.182709 -1.095296 -2.142571 -15.121573 1.907622 -4.500918 -10.871327 2.095991 -2.912286 -2.859574 -2.489813 0.580886 -14.338647 0.588283 -1.020078 31.836076 0.299844 -1.570401 13.039524 0.000000 0.000000 0.000000 -20.814294 -46.910892 -103.928109 33.688821 -43.840663 13.901158 9.619519 -9.696046 -23.934220 0.000000 0.000000 0.000000 -7.125000 0.000000 0.000000 -20.299974 53.054343 4.157199 0.000000 0.000000 0.000000 7.137686 -33.126942 64.384514 -29.716508 -40.635856 -11.229442 0.705990 -51.046756 -6.072504 0.000000 0.000000 0.000000 7.125000 0.000000 0.000000 20.011731 23.895989 10.843894
-1.114960 16.237383 -10.510362 -180.418290 -12.476087 -158.052451 0.000000 0.000000 0.000000 -23.317012 -9.752684 0.485148 3.493469 11.453919 33.826483 -0.260921 18.312785 -23.585526 0.311878 -3.571588 -9.876376 0.000000 0.000000 0.000000 13.152535 17.756866 -57.856636 -7.180651 -15.480938 49.552217 0.982723 -18.452138 -14.052957 -0.271500 -3.259626 9.010253 -0.571861 -2.151069 -15.520085 2.011478 -4.511242 -10.549971 1.863730 -2.915911 -2.327710 -2.771199 0.381639 -14.451438 0.704655 -1.251210 31.856450 0.359282 -1.682679 13.080147 0.000000 0.000000 0.000000 -21.835272 -49.417677 -106.067717 35.518255 -45.163470 15.184795 8.320249 -10.951883 -24.149375 0.000000 0.000000 0.000000 -7.125000 0.000000 0.000000 -21.670798 53.025262 4.447664 0.000000 0.000000 0.000000 6.398740 -35.521924 66.208344 -31.337833 -42.001741 -12.299332 1.467372 -50.351638 -7.159779 0.000000 0.000000 0.000000 7.125000 0.000000 0.000000 20.377612 22.870085 11.588931
-1.118939 16.370057 -10.689454 -179.913282 -13.318515 -158.392092 0.000000 0.000000 0.000000 -22.532714 -9.880607 -0.191007 3.512409 11.481614 33.921951 -0.437979 18.900392 -22.798293 0.418396 -4.144548 -11.484708 0.000000 0.000000 0.000000 14.197153 17.570385 -56.010575 -6.913056 -15.257054 48.542746 1.088732 -19.068430 -13.731458 -0.147316 -2.471814 6.811524 0.222119 -2.101754 -15.968782 2.104645 -4.481796 -10.224259 1.472804 -2.915122 -1.782154 -3.120687 0.187778 -14.765910 0.900219 -1.460410 31.923943 0.464575 -1.776821 13.185355 0.000000 0.000000 0.000000 -22.837212 -51.847807 -108.207331 37.699912 -46.625083 16.753920 7.622357 -12.004146 -24.933367 0.000000 0.000000 0.000000 -7.125000 0.000000 0.000000 -22.798337 53.625992 5.042617 0.000000 0.000000 0.000000 5.702894 -37.932136 67.416063 -32.958493 -43.286747 -13.397517 2.599478 -48.909791 -7.701352 0.000000 0.000000 0.000000 7.125000 0.000000 0.000000 21.074588 22.353530 12.311253
-1.101882 16.500416 -10.852202 -179.593010 -13.318748 -158.277047 0.000000 0.000000 0.000000 -22.122346 -9.741225 -1.604320 3.504492 11.470061 33.882211 -0.532336 19.254583 -22.434884 0.492097 -4.497549 -12.480843 0.000000 0.000000 0.000000 14.393118 18.620107 -54.663719 -6.639468 -15.019452 47.495150 1.256304 -20.129703 -13.573774 -0.169537 -2.650357 7.306887 0.454135 -1.837979 -16.206764 2.106261 -4.243033 -10.504195 1.381285 -2.842399 -1.979816 -3.265254 0.155807 -14.349838 1.054681 -1.641616 32.208456 0.515608 -1.895715 13.223115 0.000000 0.000000 0.000000 -23.172224 -53.330277 -109.571916 40.077106 -48.105662 18.499722 7.836731 -13.090221 -25.913652 0.000000 0.000000 0.000000 -7.125000 0.000000 0.000000 -23.178529 54.564481 5.675713 0.000000 0.000000 0.000000 5.149447 -39.349892 68.067853 -34.832389 -44.675779 -14.700806 3.963649 -47.335056 -7.330825 0.000000 0.000000 0.000000 7.125000 0.000000 0.000000 22.065204 22.685361 12.797525
